<svg viewBox="0 0 64 64" xmlns="http://www.w3.org/2000/svg">
    <path d="M32.01,56.0209 C18.755166,56.0209 8.01,45.275734 8.01,32.0209 C8.01,18.766066 18.755166,8.0209 32.01,8.0209 C45.264834,8.0209 56.01,18.766066 56.01,32.0209 C56.01,45.275734 45.264834,56.0209 32.01,56.0209 Z M41.5061,36.4709 L34.8683,30.49 L33.5139,17.3581 C33.4291059,16.5936706 32.7830179,16.015287 32.0139,16.015287 C31.2447821,16.015287 30.5986941,16.5936706 30.5139,17.3581 C30.4957,17.534 29.0209,31.8391 29.0019,32.0135 C28.8989645,33.0286586 29.4552413,33.9963082 30.3843,34.4182 L39.9433,38.8782 C40.5969964,39.1746147 41.369186,38.9487348 41.7600857,38.3467563 C42.1509854,37.7447778 42.0432037,36.9474814 41.5065,36.4709 L41.5061,36.4709 Z" id="path-1"></path>
</svg>
