<svg viewBox="0 0 64 64" xmlns="http://www.w3.org/2000/svg">
    <path d="M50.4739,15.0119286 C52.327584,15.1207173 54.1781962,14.7523164 55.8489,13.9419286 C55.941495,13.89837 56.0514253,13.9171348 56.1243275,13.9889432 C56.1972297,14.0607516 56.217654,14.1703858 56.1755,14.2636286 C53.7932,19.2878286 49.5313,19.9218286 44.9065,22.3136286 C46.9510519,22.5418365 49.0172152,22.4892151 51.0475,22.1572286 C51.149725,22.1383725 51.2526773,22.1863241 51.3040224,22.2767076 C51.3553675,22.3670912 51.3438401,22.4800764 51.2753,22.5582286 C45.9853,28.3754286 42.5092,24.8869286 36.4744,29.2397286 C32.7157776,31.8481946 29.4984343,35.1605234 27.0004,38.9934286 C26.6631843,39.6103608 26.0159787,39.99389 25.3129,39.9934286 C24.9307774,39.9942287 24.5670066,39.8296201 24.3153765,39.5420428 C24.0637465,39.2544656 23.9488827,38.8720634 24.0004,38.4934286 C24.0004,36.3840286 27.8516,28.2034286 37.4531,18.6485286 C48.1731,7.98032856 55.8876,6.26852856 57.7331,6.00252856 C57.8207141,5.98970113 57.9082468,6.02632405 57.9606219,6.09772175 C58.012997,6.16911945 58.0216448,6.26360982 57.9831,6.34332856 C57.3115,7.78102856 54.7139,12.8327286 50.4739,15.0119286 Z M12,17.9873286 C12.0030303,14.6745522 14.6872248,11.989463 18,11.9853286 L33,11.9853286 C34.1049561,11.9853286 35.0006999,12.8810725 35.0006999,13.9860286 C35.0006999,15.0909846 34.1049561,15.9867285 33,15.9867286 L18,15.9867286 C16.895722,15.9879966 16.0009368,16.8830502 16,17.9873286 L16,45.9936286 C16.0009368,47.0979069 16.895722,47.9929605 18,47.9942286 L46,47.9942286 C47.1042096,47.9927955 47.9988982,47.0978385 48,45.9936286 L48,30.9927286 C48,29.8881591 48.8954305,28.9927286 50,28.9927286 C51.1045695,28.9927286 52,29.8881591 52,30.9927286 L52,45.9936286 C51.9969148,49.3063984 49.3127685,51.9914841 46,51.9957286 L18,51.9957286 C14.6872315,51.9914841 12.0030852,49.3063984 12,45.9936286 L12,17.9873286 Z" id="path-1"></path>
</svg>
