<svg viewBox="0 0 64 64" xmlns="http://www.w3.org/2000/svg">
    <path d="M14.3985582,40 L16.0805582,24 L10.523,24 C8.313861,24 6.523,22.209139 6.523,20 C6.523,17.790861 8.313861,16 10.523,16 L16.9215582,16 L17.806521,7.58180445 C18.037484,5.38477208 20.0057632,3.79095798 22.2027956,4.02192101 C24.3998279,4.25288403 25.993642,6.22116319 25.762679,8.41819555 L24.9656418,16 L40.9215582,16 L41.806521,7.58180445 C42.037484,5.38477208 44.0057632,3.79095798 46.2027956,4.02192101 C48.3998279,4.25288403 49.993642,6.22116319 49.762679,8.41819555 L48.9656418,16 L54.523,16 C56.732139,16 58.523,17.790861 58.523,20 C58.523,22.209139 56.732139,24 54.523,24 L48.1246418,24 L46.4426418,40 L51.9996,40 C54.208739,40 55.9996,41.790861 55.9996,44 C55.9996,46.209139 54.208739,48 51.9996,48 L45.6016418,48 L44.716679,56.4181956 C44.485716,58.6152279 42.5174368,60.209042 40.3204044,59.978079 C38.1233721,59.747116 36.529558,57.7788368 36.760521,55.5818044 L37.5575582,48 L21.6016418,48 L20.716679,56.4181956 C20.485716,58.6152279 18.5174368,60.209042 16.3204044,59.978079 C14.1233721,59.747116 12.529558,57.7788368 12.760521,55.5818044 L13.5575582,48 L7.9996,48 C5.790461,48 3.9996,46.209139 3.9996,44 C3.9996,41.790861 5.790461,40 7.9996,40 L14.3985582,40 Z M26.9176,23.376 C23.7656,23.356 20.9236,25.896 20.5716,29.052 C19.8036,36.346 28.2976,42.626 30.1436,42.626 C31.9896,42.626 41.8036,36.346 42.5716,29.052 C42.7736,26.828 41.6736,24.82 39.7456,23.896 C36.9896,22.576 33.4396,23.85 31.8136,26.744 C31.0936,24.688 29.1776,23.37 26.9176,23.376 Z" id="path-1"></path>
</svg>
