<svg viewBox="0 0 64 64" xmlns="http://www.w3.org/2000/svg">
    <path d="M56.885,25.066 C56.327,17.738 50.351,12.121 42.947,12 C38.033,12.008 34.81,14.759 32.456,16.768 C32.292,16.908 32.131,17.046 31.973,17.179 C31.815,17.045 31.653,16.908 31.489,16.767 C29.135,14.759 25.912,12.008 20.999,12 C20.986,12.001 20.976,12 20.963,12.001 C13.596,12.121 7.619,17.736 7.062,25.048 C6.996,25.834 6.983,26.633 7.022,27.416 C7.632,40.726 19.598,50.6 27.052,54.345 C28.392,55.019 29.971,54.067 29.971,52.568 L29.971,40.011 L24.977,40.011 C24.409,40.001 23.957,39.532 23.967,38.965 C23.971,38.758 24.037,38.557 24.157,38.389 L31.146,28.414 C31.459,27.962 32.079,27.849 32.531,28.161 C32.63,28.23 32.716,28.316 32.784,28.414 L39.773,38.389 C40.102,38.851 39.993,39.492 39.531,39.821 C39.363,39.941 39.161,40.007 38.954,40.011 L33.971,40.011 L33.971,52.573 C33.971,54.073 35.55,55.024 36.89,54.351 C44.336,50.61 56.313,40.735 56.922,27.428 C56.963,26.637 56.949,25.837 56.885,25.066" id="path-1"></path>
</svg>
