<svg viewBox="0 0 64 64" xmlns="http://www.w3.org/2000/svg">
    <path d="M24.1846,38.3887 L31.1736,28.4137 C31.4856,27.9617 32.1056,27.8487 32.5586,28.1607 C32.6576,28.2297 32.7436,28.3157 32.8116,28.4137 L39.7996,38.3887 C40.1286,38.8507 40.0206,39.4927 39.5586,39.8217 C39.3896,39.9417 39.1886,40.0067 38.9816,40.0107 L33.9976,40.0107 L33.9976,53.9997 C33.9976,55.1047 33.1026,55.9997 31.9976,55.9997 C30.8936,55.9997 29.9976,55.1047 29.9976,53.9997 L29.9976,40.0107 L25.0036,40.0107 C24.4356,40.0007 23.9846,39.5327 23.9946,38.9647 C23.9976,38.7577 24.0646,38.5567 24.1846,38.3887 Z M33.7806688,15.6827746 C36.7674743,13.2749617 39.4984209,12.0060024 43.009493,12.000464 C50.3434871,12.1196312 56.3599248,17.8090273 56.9108729,25.0495063 C56.977365,25.8350151 56.9900811,26.6293455 56.9499081,27.4166515 C56.5153129,36.9111004 50.0605422,45.6830912 41.1340819,51.8442006 C40.2250208,52.4716413 38.9794401,52.2433429 38.3519994,51.3342819 C37.7245587,50.4252208 37.9528571,49.1796401 38.8619181,48.5521994 C46.861253,43.030999 52.5871822,35.2494989 52.9545951,27.2233493 C52.9861244,26.6050245 52.976302,25.9914512 52.9237666,25.3699667 C52.5280142,20.1697302 48.2089868,16.0854766 42.9803377,16.0001972 C40.5791101,16.0042045 38.6344307,16.9078176 36.2911092,18.7968859 C36.3115382,18.780417 33.8278321,20.8873394 33.1415806,21.3643918 C32.4554073,21.8413897 31.5449969,21.8414765 30.8587326,21.3646094 C30.17175,20.8872431 27.6840485,18.7772148 27.7084348,18.7968742 C25.3649728,16.9076566 23.4207967,16.0042043 21.0554981,15.999936 C15.791965,16.0854746 11.4727922,20.1688537 11.0748932,25.3836537 C11.0237879,25.9882559 11.0137379,26.6028315 11.0449077,27.2327395 C11.4118135,35.2476123 17.1357877,43.0276549 25.1343693,48.5503978 C26.0433207,49.1779972 26.2714016,50.4236178 25.6438022,51.3325693 C25.0162028,52.2415207 23.7705822,52.4696016 22.8616307,51.8420022 C13.9362249,45.6793193 7.48367971,36.9090009 7.04944624,27.4230888 C7.009877,26.6237901 7.02284727,25.8306301 7.08779473,25.0630641 C7.64130126,17.8076723 13.657799,12.1196291 21.0263377,12.0002028 C24.5015501,12.0060023 27.2319577,13.2748138 30.2189042,15.6827863 C30.2912328,15.7410951 31.1987444,16.5096706 31.9998458,17.1705946 C32.7999266,16.5103959 33.7061796,15.7428241 33.7806688,15.6827746 Z" id="path-1"></path>
</svg>
