<svg viewBox="0 0 64 64" xmlns="http://www.w3.org/2000/svg">
    <path d="M45.6283,49.8223 C45.3181955,50.0429608 44.9113183,50.0735072 44.5717433,49.9016213 C44.2321683,49.7297353 44.0158809,49.3837556 44.0101,49.0032 L44.0101,44.0218 L39.847,44.0218 C36.812536,44.0205417 33.9432923,42.6394956 32.0494,40.2686 L30.4537,38.2656 C29.8674806,37.5318805 29.8674806,36.4900195 30.4537,35.7563 C30.831817,35.2825518 31.4050066,35.0066619 32.01115,35.0066619 C32.6172934,35.0066619 33.190483,35.2825518 33.5686,35.7563 L35.1681,37.7643 C36.3072188,39.1902813 38.0329935,40.0208609 39.8581,40.0215 L44.01,40.0215 L44.01,35.0258 C44.0157809,34.6452444 44.2320683,34.2992647 44.5716433,34.1273787 C44.9112183,33.9554928 45.3180955,33.9860392 45.6282,34.2067 L55.5764,41.1954 C55.8448227,41.3817263 56.0049197,41.6877459 56.0049197,42.0145 C56.0049197,42.3412541 55.8448227,42.6472737 55.5764,42.8336 L45.6283,49.8223 Z M45.6283,29.8223 C45.3181955,30.0429608 44.9113183,30.0735072 44.5717433,29.9016213 C44.2321683,29.7297353 44.0158809,29.3837556 44.0101,29.0032 L44.0101,24.02 L39.8577,24.02 C38.0339183,24.015847 36.3082258,24.8453609 35.1723,26.2722 L23.9773,40.2686 C22.0839659,42.6465059 19.2077889,44.0288505 16.1682,44.0218 L10.0142,44.0218 C8.9096305,44.0218 8.0142,43.1263695 8.0142,42.0218 C8.0142,40.9172305 8.9096305,40.0218 10.0142,40.0218 L16.1682,40.0218 C17.9919691,40.0261692 19.7177292,39.1967878 20.8537,37.77 L32.0494,23.7729 C33.9421879,21.394711 36.8182302,20.012179 39.8577,20.0194 L44.01,20.0194 L44.01,15.0257 C44.0158174,14.6451624 44.2321188,14.2992163 44.5716867,14.1273549 C44.9112546,13.9554935 45.3181102,13.9860487 45.6282,14.2067 L55.5764,21.1954 C55.8448227,21.3817038 56.004923,21.6877087 56.004923,22.01445 C56.004923,22.3411913 55.8448227,22.6471962 55.5764,22.8335 L45.6283,29.8223 Z M23.9841,23.7814 L25.5734,25.7761 C26.260425,26.6366204 26.1226323,27.8906098 25.2651426,28.5814137 C24.4076528,29.2722175 23.1530693,29.1399426 22.4585,28.2855 L20.8537,26.2711 C19.7177063,24.8490376 17.9966942,24.0207101 16.1766,24.02 L10.1166,24.02 C9.11257483,24.0413496 8.2378356,23.3394931 8.0411,22.3547 C7.94296309,21.7739057 8.10561434,21.1793685 8.48573928,20.7294152 C8.86586423,20.2794619 9.42487298,20.0197715 10.0139,20.0195 L16.1679,20.0195 C19.2095536,20.0207264 22.085623,21.404965 23.9841,23.7814 Z" id="path-1"></path>
</svg>
