<svg xmlns="http://www.w3.org/2000/svg" viewBox="0 0 16 16" >
<path d="M3.6,10L4,6H2.6c-0.6,0-1-0.4-1-1s0.4-1,1-1h1.6l0.2-2.1C4.5,1.3,5,0.9,5.6,1c0.5,0.1,0.9,0.5,0.9,1.1L6.2,4h4
	l0.2-2.1C10.5,1.3,11,0.9,11.6,1c0.5,0.1,0.9,0.5,0.9,1.1L12.2,4h1.4c0.6,0,1,0.4,1,1s-0.4,1-1,1H12l-0.4,4H13c0.6,0,1,0.4,1,1
	s-0.4,1-1,1h-1.6l-0.2,2.1c-0.1,0.5-0.5,0.9-1.1,0.9c-0.5-0.1-0.9-0.5-0.9-1.1L9.4,12h-4l-0.2,2.1c-0.1,0.5-0.5,0.9-1.1,0.9
	c-0.5-0.1-0.9-0.5-0.9-1.1L3.4,12H2c-0.6,0-1-0.4-1-1s0.4-1,1-1H3.6z M6.7,5.8c-0.8,0-1.5,0.6-1.6,1.4C5,9.1,7.1,10.7,7.5,10.7
	c0.5,0,2.9-1.6,3.1-3.4c0.1-0.6-0.2-1.1-0.7-1.3C9.2,5.6,8.4,6,8,6.7C7.8,6.2,7.3,5.8,6.7,5.8z"/>
</svg>
